Results
version=1
nRows=8
nColumns=55
inDegrees=yes
endheader
time	/jointset/boatJoint/bJoint_3/value	/jointset/boatJoint/bJoint_3/speed	/jointset/boatJoint/bJoint_4/value	/jointset/boatJoint/bJoint_4/speed	/jointset/seatJoint/seatpos/value	/jointset/seatJoint/seatpos/speed	/jointset/starboardlockJoint/slocangle/value	/jointset/starboardlockJoint/slocangle/speed	/jointset/starboardoarJoint/soarinout/value	/jointset/starboardoarJoint/soarinout/speed	/jointset/portlockJoint/plocangle/value	/jointset/portlockJoint/plocangle/speed	/jointset/portoarJoint/poarinout/value	/jointset/portoarJoint/poarinout/speed	/jointset/hipJoint/hipangle/value	/jointset/hipJoint/hipangle/speed	/jointset/knee_Joint/kneeangle/value	/jointset/knee_Joint/kneeangle/speed	/jointset/foot_Joint/footangle/value	/jointset/foot_Joint/footangle/speed	/jointset/lbackJoint/lbackangle/value	/jointset/lbackJoint/lbackangle/speed	/jointset/upper_arm_left_Joint/uarmleft_out/value	/jointset/upper_arm_left_Joint/uarmleft_out/speed	/jointset/upper_arm_left_Joint/uarmleft_trn/value	/jointset/upper_arm_left_Joint/uarmleft_trn/speed	/jointset/upper_arm_left_Joint/uarmleft_up/value	/jointset/upper_arm_left_Joint/uarmleft_up/speed	/jointset/lower_arm_left_Joint/se_inout/value	/jointset/lower_arm_left_Joint/se_inout/speed	/jointset/lower_arm_left_Joint/se_updown/value	/jointset/lower_arm_left_Joint/se_updown/speed	/jointset/handle_left_Joint/handleleft_out/value	/jointset/handle_left_Joint/handleleft_out/speed	/jointset/handle_left_Joint/handleleft_trn/value	/jointset/handle_left_Joint/handleleft_trn/speed	/jointset/handle_left_Joint/handleleft_up/value	/jointset/handle_left_Joint/handleleft_up/speed	/jointset/upper_arm_right_Joint/uarmright_out/value	/jointset/upper_arm_right_Joint/uarmright_out/speed	/jointset/upper_arm_right_Joint/uarmright_trn/value	/jointset/upper_arm_right_Joint/uarmright_trn/speed	/jointset/upper_arm_right_Joint/uarmright_up/value	/jointset/upper_arm_right_Joint/uarmright_up/speed	/jointset/lower_arm_right_Joint/pe_inout/value	/jointset/lower_arm_right_Joint/pe_inout/speed	/jointset/lower_arm_right_Joint/pe_updown/value	/jointset/lower_arm_right_Joint/pe_updown/speed	/jointset/handle_right_Joint/handleright_out/value	/jointset/handle_right_Joint/handleright_out/speed	/jointset/handle_right_Joint/handleright_trn/value	/jointset/handle_right_Joint/handleright_trn/speed	/jointset/handle_right_Joint/handleright_up/value	/jointset/handle_right_Joint/handleright_up/speed
      1.10124023	      0.60246300	     -1.27826941	      1.39374009	      3.84982691	     -0.87611525	      5.29441877	      0.68430368	   2916.22835908	    -70.42709826	  -1685.24703894	    -29.59118104	   2683.59743849	    -40.63896518	   2694.00062450	    279.09858158	  -3701.70875664	   -169.59715771	    398.58752950	     19.50142387	  -3303.12122714	   -160.10987939	    689.92425282	     16.63521237	   9565.13858276	     63.08024771	      2.59341466	   -283.70238804	   -314.72547792	   -299.59823686	  -8196.03738690	   -378.75601218	  -8760.69983381	    846.92112974	   7315.72114704	     23.02722514	  -3640.50845442	   -378.97887963	  -6686.01486100	    312.07287774	  -7078.19347790	   -123.58927511	   -116.22337883	   -380.01670653	   3774.69041783	   -433.63188506	  -3334.68951341	    -28.17213154	  -2427.12100538	    604.69383629	  -4241.29594326	     88.08797314	   5394.41212128	    288.00329476	   3383.54198216
      1.10130721	      0.60237602	     -1.31848049	      1.39399626	      3.79998243	     -0.87576109	      5.28117040	      0.88080123	   2951.06229582	    -70.53869169	  -1646.98143634	    -29.41081075	   2702.44338713	    -40.45896235	   2680.91789022	    278.85110800	  -3688.08793947	   -169.57043622	    399.33815889	     19.28067178	  -3288.74978058	   -160.06293783	    711.65339450	     17.30396871	   9483.91960627	     63.07576664	      5.13650213	   -283.73696157	   -171.68310185	   -300.14630634	  -8169.52943963	   -379.34043221	  -8690.71270147	    847.21142176	   7255.63849735	     22.81832037	  -3737.97039230	   -378.47131551	  -6705.50252253	    311.35231760	  -7110.94460079	   -123.78336097	    -94.08672087	   -380.31160630	   3801.60934548	   -433.85867095	  -3437.15591155	    -28.33528836	  -2444.74241332	    598.63820119	  -4279.17261464	     87.71744984	   5401.56189816	    293.77742484	   3349.28608727
      1.10137419	      0.60228644	     -1.35587412	      1.39424916	      3.75236096	     -0.87540781	      5.26806559	      1.07957036	   2984.06072148	    -70.64771200	  -1608.42029517	    -29.22917451	   2721.39937176	    -40.27986206	   2667.05029378	    278.60454496	  -3674.51884901	   -169.54366496	    400.07347908	     19.06088000	  -3274.44536992	   -160.01456913	    732.53973908	     17.94932731	   9402.10257386	     63.07406680	      4.97800832	   -283.75141799	    -30.26484661	   -300.69254278	  -8141.31188346	   -379.92018471	  -8621.33794220	    847.49674086	   7195.00639885	     22.61467956	  -3833.55696057	   -377.95698207	  -6723.93119853	    310.63160230	  -7143.14844396	   -123.97988448	    -71.95148302	   -380.60474603	   3828.82438616	   -434.09228160	  -3538.48106654	    -28.49959552	  -2461.47134775	    594.22750213	  -4317.44474093	     87.33107718	   5407.55665391	    297.90406243	   3315.56835462
      1.10145805	      0.60217090	     -1.39870627	      1.39456147	      3.69588120	     -0.87496668	      5.25185108	      1.33147929	   3022.80446919	    -70.78056893	  -1559.80028720	    -28.99993831	   2745.28573417	    -40.05695022	   2648.58595880	    278.29708403	  -3657.59855642	   -169.51007411	    400.97282306	     18.78700992	  -3256.62573336	   -159.95207706	    757.50593699	     18.72473754	   9298.98505521	     63.07586279	      1.08408400	   -283.74155182	    144.40555847	   -301.37376945	  -8103.66649197	   -380.63962156	  -8535.46483107	    847.84707451	   7118.43407191	     22.36711164	  -3950.60752038	   -377.30372532	  -6745.52174461	    309.72903519	  -7182.69460197	   -124.22946842	    -44.25825202	   -380.96926442	   3863.31051978	   -434.39430840	  -3663.73138309	    -28.70686727	  -2481.16175305	    590.15185556	  -4365.89847470	     86.83432223	   5413.44967576	    301.62036758	   3274.10142121
      1.10154192	      0.60205196	     -1.43709652	      1.39486918	      3.64291327	     -0.87452689	      5.23584521	      1.58651824	   3058.70819930	    -70.90933584	  -1510.90036915	    -28.76869212	   2769.33094724	    -39.83563785	   2628.90958096	    277.99103895	  -3640.75432254	   -169.47640882	    401.84861165	     18.51463013	  -3238.90571089	   -159.88754633	    781.15764108	     19.46415845	   9195.32494264	     63.08200441	     -6.78244723	   -283.70104895	    316.26738959	   -302.05173517	  -8063.56847450	   -381.35190812	  -8450.84914752	    848.18978860	   7041.28028495	     22.12779673	  -4064.73998192	   -376.64059330	  -6765.47784837	    308.82648884	  -7221.36868056	   -124.48302507	    -16.61740052	   -381.33087494	   3898.23797873	   -434.70676314	  -3787.15639963	    -28.91573189	  -2499.45769129	    587.09702142	  -4414.90900676	     86.32919710	   5417.56891684	    304.31175541	   3233.46595346
      1.10165988	      0.60187961	     -1.48360741	      1.39529479	      3.57435092	     -0.87391059	      5.21367087	      1.95007509	   3104.47221897	    -71.08348933	  -1441.82449902	    -28.44001657	   2803.39812471	    -39.52726146	   2599.21079101	    277.56296865	  -3617.18762432	   -169.42893616	    403.04112336	     18.13403249	  -3214.14650097	   -159.79354414	    812.21947001	     20.44399220	   9048.99815955	     63.09790965	    -24.28970243	   -283.59314934	    553.00746932	   -302.99939659	  -8003.26213439	   -382.34186003	  -8334.24938491	    848.65911228	   6932.05245340	     21.80513995	  -4220.39471751	   -375.69194232	  -6790.83251487	    307.55738506	  -7274.27979679	   -124.84653754	     22.11918346	   -381.83438296	   3948.08197666	   -435.16358526	  -3957.63877208	    -29.21197287	  -2522.84238135	    583.86496406	  -4484.71662938	     85.61118359	   5420.40686777	    307.02557720	   3177.70560507
      1.10180197	      0.60166550	     -1.52815560	      1.39579732	      3.50092127	     -0.87317166	      5.18746138	      2.39467842	   3152.42399935	    -71.28243115	  -1358.45352378	    -28.03875485	   2844.76869185	    -39.16066817	   2560.35767967	    277.05101887	  -3588.98930807	   -169.37157067	    404.41780319	     17.67944820	  -3184.57150488	   -159.67567623	    846.26830896	     21.53222892	   8872.59434059	     63.12807678	    -54.86032754	   -283.38575647	    830.07710548	   -304.13106610	  -7925.00042209	   -383.51631297	  -8198.01915440	    849.20506054	   6799.84684112	     21.43803794	  -4400.50074069	   -374.52586699	  -6817.29276767	    306.02979581	  -7335.70360231	   -125.29538114	     68.46742831	   -382.43260118	   4009.17781494	   -435.74022074	  -4158.12305367	    -29.57222695	  -2547.39552538	    580.97432995	  -4570.03209018	     84.74103823	   5419.33149617	    309.28086362	   3112.67694845
      1.10197778	      0.60139319	     -1.56635057	      1.39640584	      3.42370607	     -0.87226242	      5.15574904	      2.95338982	   3201.32492704	    -71.51221415	  -1255.53243420	    -27.53406849	   2896.35791747	    -38.71506738	   2507.75940482	    276.42306324	  -3554.37790211	   -169.30032399	    406.03362251	     17.12273925	  -3148.34427960	   -159.52354135	    883.44574061	     22.74216154	   8655.24373791	     63.18131018	   -106.06514735	   -283.01490671	   1160.15797590	   -305.51533993	  -7820.48263466	   -384.94334679	  -8036.60168442	    849.85195310	   6636.08261876	     21.01615049	  -4612.63071645	   -373.05009953	  -6844.17741242	    304.14239743	  -7408.22130250	   -125.86793032	    125.17561243	   -383.15954518	   4086.25688748	   -436.49256430	  -4398.80496212	    -30.02238420	  -2572.38867344	    578.27921166	  -4677.22088625	     83.66281633	   5411.39403724	    311.17268300	   3035.39084276
